<svg xmlns="http://www.w3.org/2000/svg" width="48" height="48" fill="none">
<path stroke="#000" stroke-width="2" d="M14.049 24.098s16.044-1.24 24.585 5.653 8.195 16.015 8.195 16.015"/>
<path stroke="#56A45B" d="M14.049 24.098s16.044-1.24 24.585 5.653 8.195 16.015 8.195 16.015"/>
<path fill="#FFF6EE" stroke="#000" stroke-width=".5" d="M13.551 10.805c3.674-2.932 7.416-5.266 10.49-6.671 1.54-.704 2.897-1.167 3.985-1.362 1.103-.196 1.85-.104 2.268.208.418.312.563.884.346 1.74-.214.847-.769 1.909-1.627 3.12-1.715 2.417-4.612 5.382-8.286 8.314-3.674 2.933-7.416 5.267-10.49 6.672-1.54.703-2.897 1.167-3.986 1.361-1.102.197-1.849.104-2.267-.207-.418-.312-.563-.885-.346-1.741.214-.846.769-1.908 1.627-3.119 1.715-2.418 4.612-5.382 8.286-8.315Z"/>
<path fill="#FFF6EE" stroke="#000" stroke-width=".5" d="M20.3 13.56c4.582-2.04 9.017-3.49 12.479-4.19 1.733-.35 3.207-.507 4.327-.463 1.145.046 1.813.297 2.088.665.275.368.224.94-.297 1.727-.51.77-1.425 1.677-2.684 2.66-2.516 1.962-6.362 4.2-10.944 6.24-4.582 2.04-9.017 3.491-12.479 4.19-1.733.35-3.207.508-4.328.463-1.144-.045-1.812-.297-2.087-.665-.276-.368-.224-.94.297-1.727.51-.77 1.425-1.676 2.684-2.659 2.516-1.963 6.362-4.2 10.944-6.24Z"/>
<path fill="#FFF6EE" stroke="#000" stroke-width=".5" d="M21.116 31.885c3.85 2.87 6.92 5.79 8.774 8.185.927 1.199 1.542 2.256 1.802 3.103.265.859.147 1.436-.253 1.756-.401.32-1.145.43-2.267.255-1.106-.172-2.497-.609-4.082-1.283-3.167-1.347-7.055-3.614-10.906-6.484-3.85-2.87-6.92-5.79-8.774-8.185-.927-1.199-1.542-2.256-1.802-3.103-.265-.859-.147-1.436.253-1.756.401-.32 1.145-.43 2.267-.255 1.106.172 2.497.609 4.082 1.283 3.167 1.347 7.055 3.614 10.906 6.484Z"/>
<path fill="#FFF6EE" stroke="#000" stroke-width=".5" d="M20.3 34.647c-4.582-2.04-8.428-4.278-10.944-6.24-1.26-.983-2.174-1.89-2.684-2.66-.521-.787-.573-1.359-.297-1.727.275-.368.943-.62 2.087-.665 1.12-.044 2.595.114 4.328.463 3.462.7 7.897 2.15 12.479 4.19 4.582 2.041 8.428 4.278 10.944 6.241 1.259.983 2.174 1.889 2.684 2.66.521.787.572 1.358.297 1.726-.275.368-.943.62-2.088.665-1.12.045-2.594-.113-4.327-.463-3.462-.699-7.897-2.15-12.479-4.19Z"/>
<path fill="#B77E49" stroke="#000" stroke-width=".5" d="M8.78 18.343c-3.054 0-5.518 2.544-5.518 5.668s2.464 5.668 5.519 5.668c3.054 0 5.518-2.544 5.518-5.668s-2.464-5.668-5.518-5.668Z"/>
<path stroke="#000" stroke-width=".5" d="M45.658 45.434H48"/>
</svg>